<?xml version="1.0" encoding="UTF-8" standalone="no"?>
<svg
   xmlns:dc="http://purl.org/dc/elements/1.1/"
   xmlns:cc="http://creativecommons.org/ns#"
   xmlns:rdf="http://www.w3.org/1999/02/22-rdf-syntax-ns#"
   xmlns:svg="http://www.w3.org/2000/svg"
   xmlns="http://www.w3.org/2000/svg"
   xmlns:sodipodi="http://sodipodi.sourceforge.net/DTD/sodipodi-0.dtd"
   xmlns:inkscape="http://www.inkscape.org/namespaces/inkscape"
   version="1.1"
   width="883.808"
   height="859.116"
   xlink="http://www.w3.org/1999/xlink"
   style="position:relative;overflow:hidden;"
   viewBox="-6.961 -7 883.808 859.116"
   id="svg352"
   sodipodi:docname="floorplan.svg"
   inkscape:version="0.92.5 (2060ec1f9f, 2020-04-08)">
  <metadata
     id="metadata356">
    <rdf:RDF>
      <cc:Work
         rdf:about="">
        <dc:format>image/svg+xml</dc:format>
        <dc:type
           rdf:resource="http://purl.org/dc/dcmitype/StillImage" />
        <dc:title></dc:title>
      </cc:Work>
    </rdf:RDF>
  </metadata>
  <sodipodi:namedview
     pagecolor="#ffffff"
     bordercolor="#666666"
     borderopacity="1"
     objecttolerance="10"
     gridtolerance="10"
     guidetolerance="10"
     inkscape:pageopacity="0"
     inkscape:pageshadow="2"
     inkscape:window-width="1920"
     inkscape:window-height="1017"
     id="namedview354"
     showgrid="false"
     inkscape:zoom="0.9870611"
     inkscape:cx="414.7741"
     inkscape:cy="449.69751"
     inkscape:window-x="-8"
     inkscape:window-y="-8"
     inkscape:window-maximized="1"
     inkscape:current-layer="svg352"
     inkscape:snap-global="false" />
  <defs
     id="defs10" />
  <g
     id="g350">
    <g
       width="271.181"
       height="257.008"
       transform="translate(11.539,10.669)"
       id="g16">
      <g
         id="g14"
         style="fill:none;stroke:#000000;stroke-opacity:1">
        <path
           d="M 0,257.008 V 0 h 271.181 v 257.008 z"
           id="path12"
           inkscape:connector-curvature="0"
           style="stroke-width:11.33899975;stroke-dasharray:none" />
      </g>
    </g>
    <g
       width="56"
       height="56"
       transform="rotate(-90,236.359,2.437)"
       id="g42">
      <g
         width="56"
         height="56"
         id="g40">
        <g
           transform="scale(0.95726527,0.95465402)"
           id="g38">
          <g
             id="g36">
            <g
               width="56.5"
               height="43.993"
               transform="translate(0.5,0.5)"
               id="g28">
              <g
                 id="g26"
                 style="fill:#000000;stroke:#000000;stroke-opacity:1">
                <path
                   d="m 56.5,43.993 v 0 L 56.392,41.736 56.187,39.609 55.897,37.594 55.534,35.676 55.106,33.845 54.619,32.092 54.079,30.41 53.49,28.793 52.855,27.236 52.178,25.736 51.461,24.29 50.705,22.893 49.914,21.545 49.088,20.244 48.228,18.986 47.337,17.771 46.414,16.598 45.46,15.465 44.477,14.371 43.465,13.317 42.424,12.3 41.355,11.322 40.258,10.38 39.132,9.476 37.979,8.608 36.798,7.778 35.59,6.985 34.353,6.229 33.088,5.511 31.794,4.831 30.471,4.189 29.118,3.587 27.734,3.026 26.32,2.506 24.873,2.029 23.393,1.596 21.879,1.21 20.328,0.871 18.739,0.583 17.11,0.348 15.439,0.17 13.722,0.052 11.956,0 10.136,0.019 8.258,0.115 6.315,0.298 4.299,0.578 2.199,0.97 0,1.493 v 0 41.833"
                   id="path18"
                   inkscape:connector-curvature="0"
                   style="fill:none;stroke-width:1;stroke-dasharray:none" />
                <g
                   id="g24">
                  <g
                     id="g22"
                     style="stroke-dasharray:none">
                    <path
                       d="m 55.5,42.993 h 2 v 2 h -2 z"
                       id="path20"
                       inkscape:connector-curvature="0"
                       style="fill:none;stroke-width:0" />
                  </g>
                </g>
              </g>
            </g>
            <g
               width="56.833"
               height="14.167"
               transform="translate(0.167,44.493)"
               id="g34">
              <g
                 width="56.833"
                 height="14.167"
                 id="g32"
                 style="opacity:1;fill:#ffffff;fill-opacity:1;stroke:#bfbfbf;stroke-width:0;stroke-dasharray:none;stroke-opacity:1">
                <rect
                   width="56.833"
                   height="14.167"
                   id="rect30"
                   x="0"
                   y="0" />
              </g>
            </g>
          </g>
        </g>
      </g>
    </g>
    <g
       width="110.748"
       height="153.354"
       transform="translate(282.721,11.205)"
       id="g48">
      <g
         id="g46"
         style="fill:none;stroke:#000000;stroke-opacity:1">
        <path
           d="M 0,153.354 V 0 h 110.748 v 153.354 z"
           id="path44"
           inkscape:connector-curvature="0"
           style="stroke-width:12.4090004;stroke-dasharray:none" />
      </g>
    </g>
    <g
       width="79.455"
       height="14.173"
       transform="translate(294.069,157.479)"
       id="g54">
      <g
         width="79.455"
         height="14.173"
         id="g52"
         style="fill:#ffffff;fill-opacity:1;stroke:#bfbfbf;stroke-width:0;stroke-dasharray:none;stroke-opacity:1">
        <rect
           width="79.455002"
           height="14.173"
           id="rect50"
           x="0"
           y="0" />
      </g>
    </g>
    <g
       width="173.751"
       height="153.333"
       transform="translate(393.468,11.167)"
       id="g60">
      <g
         id="g58"
         style="fill:none;stroke:#000000;stroke-opacity:1">
        <path
           d="M 0,153.333 V 0 h 173.751 v 153.333 z"
           id="path56"
           inkscape:connector-curvature="0"
           style="stroke-width:12.33300018;stroke-dasharray:none" />
      </g>
    </g>
    <g
       width="92.27"
       height="153.333"
       transform="translate(567.219,11.167)"
       id="g66">
      <g
         id="g64"
         style="fill:none;stroke:#000000;stroke-opacity:1">
        <path
           d="M 0,153.333 V 0 h 92.27 v 153.333 z"
           id="path62"
           inkscape:connector-curvature="0"
           style="stroke-width:12.33300018;stroke-dasharray:none" />
      </g>
    </g>
    <g
       width="56"
       height="56"
       transform="rotate(180,277.425,106.649)"
       id="g92">
      <g
         width="56"
         height="56"
         id="g90">
        <g
           transform="scale(0.95726527,0.95465402)"
           id="g88">
          <g
             id="g86">
            <g
               width="56.5"
               height="43.993"
               transform="translate(0.5,0.5)"
               id="g78">
              <g
                 id="g76"
                 style="fill:#000000;stroke:#000000;stroke-opacity:1">
                <path
                   d="m 56.5,43.993 v 0 L 56.392,41.736 56.187,39.609 55.897,37.594 55.534,35.676 55.106,33.845 54.619,32.092 54.079,30.41 53.49,28.793 52.855,27.236 52.178,25.736 51.461,24.29 50.705,22.893 49.914,21.545 49.088,20.244 48.228,18.986 47.337,17.771 46.414,16.598 45.46,15.465 44.477,14.371 43.465,13.317 42.424,12.3 41.355,11.322 40.258,10.38 39.132,9.476 37.979,8.608 36.798,7.778 35.59,6.985 34.353,6.229 33.088,5.511 31.794,4.831 30.471,4.189 29.118,3.587 27.734,3.026 26.32,2.506 24.873,2.029 23.393,1.596 21.879,1.21 20.328,0.871 18.739,0.583 17.11,0.348 15.439,0.17 13.722,0.052 11.956,0 10.136,0.019 8.258,0.115 6.315,0.298 4.299,0.578 2.199,0.97 0,1.493 v 0 41.833"
                   id="path68"
                   inkscape:connector-curvature="0"
                   style="fill:none;stroke-width:1;stroke-dasharray:none" />
                <g
                   id="g74">
                  <g
                     id="g72"
                     style="stroke-dasharray:none">
                    <path
                       d="m 55.5,42.993 h 2 v 2 h -2 z"
                       id="path70"
                       inkscape:connector-curvature="0"
                       style="fill:none;stroke-width:0" />
                  </g>
                </g>
              </g>
            </g>
            <g
               width="56.833"
               height="14.167"
               transform="translate(0.167,44.493)"
               id="g84">
              <g
                 width="56.833"
                 height="14.167"
                 id="g82"
                 style="opacity:1;fill:#ffffff;fill-opacity:1;stroke:#bfbfbf;stroke-width:0;stroke-dasharray:none;stroke-opacity:1">
                <rect
                   width="56.833"
                   height="14.167"
                   id="rect80"
                   x="0"
                   y="0" />
              </g>
            </g>
          </g>
        </g>
      </g>
    </g>
    <g
       width="56"
       height="56"
       transform="rotate(180,321.445,106.649)"
       id="g118">
      <g
         width="56"
         height="56"
         id="g116">
        <g
           transform="scale(0.95726527,0.95465402)"
           id="g114">
          <g
             id="g112">
            <g
               width="56.5"
               height="43.993"
               transform="translate(0.5,0.5)"
               id="g104">
              <g
                 id="g102"
                 style="fill:#000000;stroke:#000000;stroke-opacity:1">
                <path
                   d="m 56.5,43.993 v 0 L 56.392,41.736 56.187,39.609 55.897,37.594 55.534,35.676 55.106,33.845 54.619,32.092 54.079,30.41 53.49,28.793 52.855,27.236 52.178,25.736 51.461,24.29 50.705,22.893 49.914,21.545 49.088,20.244 48.228,18.986 47.337,17.771 46.414,16.598 45.46,15.465 44.477,14.371 43.465,13.317 42.424,12.3 41.355,11.322 40.258,10.38 39.132,9.476 37.979,8.608 36.798,7.778 35.59,6.985 34.353,6.229 33.088,5.511 31.794,4.831 30.471,4.189 29.118,3.587 27.734,3.026 26.32,2.506 24.873,2.029 23.393,1.596 21.879,1.21 20.328,0.871 18.739,0.583 17.11,0.348 15.439,0.17 13.722,0.052 11.956,0 10.136,0.019 8.258,0.115 6.315,0.298 4.299,0.578 2.199,0.97 0,1.493 v 0 41.833"
                   id="path94"
                   inkscape:connector-curvature="0"
                   style="fill:none;stroke-width:1;stroke-dasharray:none" />
                <g
                   id="g100">
                  <g
                     id="g98"
                     style="stroke-dasharray:none">
                    <path
                       d="m 55.5,42.993 h 2 v 2 h -2 z"
                       id="path96"
                       inkscape:connector-curvature="0"
                       style="fill:none;stroke-width:0" />
                  </g>
                </g>
              </g>
            </g>
            <g
               width="56.833"
               height="14.167"
               transform="translate(0.167,44.493)"
               id="g110">
              <g
                 width="56.833"
                 height="14.167"
                 id="g108"
                 style="opacity:1;fill:#ffffff;fill-opacity:1;stroke:#bfbfbf;stroke-width:0;stroke-dasharray:none;stroke-opacity:1">
                <rect
                   width="56.833"
                   height="14.167"
                   id="rect106"
                   x="0"
                   y="0" />
              </g>
            </g>
          </g>
        </g>
      </g>
    </g>
    <g
       width="205.827"
       height="268.819"
       transform="translate(659.489,11.167)"
       id="g124">
      <g
         id="g122"
         style="fill:none;stroke:#000000;stroke-opacity:1">
        <path
           d="M 0,268.819 V 0 h 205.827 v 268.819 z"
           id="path120"
           inkscape:connector-curvature="0"
           style="stroke-width:11.33899975;stroke-dasharray:none" />
      </g>
    </g>
    <g
       width="81.342"
       height="14"
       transform="rotate(90,242.209,424.36)"
       id="g130">
      <g
         width="81.342"
         height="14"
         id="g128"
         style="fill:#ffffff;fill-opacity:1;stroke:#bfbfbf;stroke-width:0;stroke-dasharray:none;stroke-opacity:1">
        <rect
           width="81.342003"
           height="14"
           id="rect126"
           x="0"
           y="0" />
      </g>
    </g>
    <g
       width="100.293"
       height="12"
       transform="rotate(-90,87.3625,81.8235)"
       id="g156">
      <g
         width="100.293"
         height="12"
         id="g154">
        <g
           transform="scale(1.3025075,0.88888941)"
           id="g152">
          <g
             id="g150">
            <g
               width="75"
               height="12.5"
               transform="translate(0.5,0.5)"
               id="g136">
              <g
                 width="75"
                 height="12.5"
                 id="g134"
                 style="opacity:1;fill:#ffffff;fill-opacity:1;stroke:#000000;stroke-width:1;stroke-dasharray:none;stroke-opacity:1">
                <rect
                   width="75"
                   height="12.5"
                   id="rect132"
                   x="0"
                   y="0" />
              </g>
            </g>
            <g
               width="75"
               height="0"
               transform="translate(0.5,6.667)"
               id="g148">
              <g
                 id="g146"
                 style="fill:#000000;stroke:#000000;stroke-opacity:1">
                <path
                   d="M 0,0 H 75"
                   id="path138"
                   inkscape:connector-curvature="0"
                   style="fill:none;stroke-width:1;stroke-dasharray:none" />
                <g
                   id="g144">
                  <g
                     id="g142"
                     style="stroke-dasharray:none">
                    <path
                       d="M -1,-1 H 1 V 1 H -1 Z"
                       id="path140"
                       inkscape:connector-curvature="0"
                       style="fill:none;stroke-width:0" />
                  </g>
                </g>
              </g>
            </g>
          </g>
        </g>
      </g>
    </g>
    <g
       width="100.333"
       height="12"
       transform="rotate(-90,529.7615,-329.5545)"
       id="g182">
      <g
         width="100.333"
         height="12"
         id="g180">
        <g
           transform="scale(1.3030299,0.88888941)"
           id="g178">
          <g
             id="g176">
            <g
               width="75"
               height="12.5"
               transform="translate(0.5,0.5)"
               id="g162">
              <g
                 width="75"
                 height="12.5"
                 id="g160"
                 style="opacity:1;fill:#ffffff;fill-opacity:1;stroke:#000000;stroke-width:1;stroke-dasharray:none;stroke-opacity:1">
                <rect
                   width="75"
                   height="12.5"
                   id="rect158"
                   x="0"
                   y="0" />
              </g>
            </g>
            <g
               width="75"
               height="0"
               transform="translate(0.5,6.667)"
               id="g174">
              <g
                 id="g172"
                 style="fill:#000000;stroke:#000000;stroke-opacity:1">
                <path
                   d="M 0,0 H 75"
                   id="path164"
                   inkscape:connector-curvature="0"
                   style="fill:none;stroke-width:1;stroke-dasharray:none" />
                <g
                   id="g170">
                  <g
                     id="g168"
                     style="stroke-dasharray:none">
                    <path
                       d="M -1,-1 H 1 V 1 H -1 Z"
                       id="path166"
                       inkscape:connector-curvature="0"
                       style="fill:none;stroke-width:0" />
                  </g>
                </g>
              </g>
            </g>
          </g>
        </g>
      </g>
    </g>
    <g
       width="471.969"
       height="255.433"
       transform="translate(393.347,279.986)"
       id="g188">
      <g
         id="g186"
         style="fill:none;stroke:#000000;stroke-opacity:1">
        <path
           d="M 0,255.433 V 0 h 471.969 v 255.433 z"
           id="path184"
           inkscape:connector-curvature="0"
           style="stroke-width:11.33899975;stroke-dasharray:none" />
      </g>
    </g>
    <g
       width="56"
       height="56"
       transform="rotate(90,33.972,408.814)"
       id="g214">
      <g
         width="56"
         height="56"
         id="g212">
        <g
           transform="scale(0.95726475,0.96723505)"
           id="g210">
          <g
             id="g208">
            <g
               width="56.5"
               height="43.897"
               transform="translate(0.5,0.5)"
               id="g200">
              <g
                 id="g198"
                 style="fill:#000000;stroke:#000000;stroke-opacity:1">
                <path
                   d="m 0,43.897 v 0 l 0.126,-2.233 0.22,-2.107 0.302,-1.999 0.374,-1.904 0.437,-1.819 0.494,-1.743 0.547,-1.674 0.594,-1.609 0.64,-1.55 0.682,-1.494 0.721,-1.441 0.759,-1.392 0.795,-1.344 0.828,-1.298 0.862,-1.255 0.894,-1.212 0.925,-1.171 0.954,-1.131 0.985,-1.091 1.013,-1.053 1.042,-1.016 1.069,-0.978 1.098,-0.941 L 17.487,9.538 18.64,8.671 19.82,7.84 21.029,7.046 22.265,6.29 23.529,5.57 24.822,4.889 26.144,4.246 27.495,3.642 28.877,3.078 30.289,2.556 31.734,2.076 33.211,1.639 34.722,1.249 36.27,0.905 37.855,0.612 39.479,0.371 41.145,0.186 42.857,0.061 44.616,0 l 1.812,0.008 1.869,0.085 1.933,0.169 2.004,0.264 2.086,0.373 2.18,0.498 v 0 41.833"
                   id="path190"
                   inkscape:connector-curvature="0"
                   style="fill:none;stroke-width:1;stroke-dasharray:none" />
                <g
                   id="g196">
                  <g
                     id="g194"
                     style="stroke-dasharray:none">
                    <path
                       d="m -1,42.897 h 2 v 2 h -2 z"
                       id="path192"
                       inkscape:connector-curvature="0"
                       style="fill:none;stroke-width:0" />
                  </g>
                </g>
              </g>
            </g>
            <g
               width="56.833"
               height="14.167"
               transform="translate(0.167,43.73)"
               id="g206">
              <g
                 width="56.833"
                 height="14.167"
                 id="g204"
                 style="opacity:1;fill:#ffffff;fill-opacity:1;stroke:#bfbfbf;stroke-width:0;stroke-dasharray:none;stroke-opacity:1">
                <rect
                   width="56.833"
                   height="14.167"
                   id="rect202"
                   x="0"
                   y="0" />
              </g>
            </g>
          </g>
        </g>
      </g>
    </g>
    <g
       width="472"
       height="286.924"
       transform="translate(393.347,535.419)"
       id="g220">
      <g
         id="g218"
         style="fill:none;stroke:#000000;stroke-opacity:1">
        <path
           d="M 0,286.924 V 0 h 472 v 286.924 z"
           id="path216"
           inkscape:connector-curvature="0"
           style="stroke-width:11.33300018;stroke-dasharray:none" />
      </g>
    </g>
    <g
       width="120"
       height="68"
       transform="rotate(90,-112.987,513.694)"
       id="g258">
      <g
         width="120"
         height="68"
         id="g256">
        <g
           transform="scale(0.95364482,0.97607174)"
           id="g254">
          <g
             id="g252">
            <g
               width="122.833"
               height="14.667"
               transform="translate(0.5)"
               id="g226">
              <g
                 width="122.833"
                 height="14.667"
                 id="g224"
                 style="opacity:1;fill:#ffffff;fill-opacity:1;stroke:#bfbfbf;stroke-width:0;stroke-dasharray:none;stroke-opacity:1">
                <rect
                   width="122.833"
                   height="14.667"
                   id="rect222"
                   x="0"
                   y="0" />
              </g>
            </g>
            <g
               width="61.333"
               height="54.5"
               transform="translate(0.5,14.667)"
               id="g238">
              <g
                 id="g236"
                 style="fill:#000000;stroke:#000000;stroke-opacity:1">
                <path
                   d="m 0,0 v 54.5 0 l 2.111,-0.145 2.056,-0.207 2.005,-0.265 1.956,-0.32 1.91,-0.371 1.867,-0.42 1.826,-0.466 1.786,-0.511 1.748,-0.553 1.712,-0.595 1.676,-0.634 1.642,-0.673 1.609,-0.71 1.576,-0.747 1.545,-0.783 1.514,-0.817 1.483,-0.852 1.453,-0.885 1.424,-0.919 1.395,-0.951 1.365,-0.984 1.337,-1.017 1.309,-1.048 1.28,-1.08 1.251,-1.113 1.224,-1.144 1.195,-1.176 1.166,-1.208 1.138,-1.24 1.109,-1.273 1.079,-1.306 1.051,-1.339 1.02,-1.373 0.989,-1.407 0.959,-1.442 0.927,-1.478 0.895,-1.514 0.861,-1.552 0.827,-1.59 0.792,-1.63 0.755,-1.671 0.717,-1.713 0.678,-1.759 L 58.854,9.815 59.447,7.961 59.995,6.056 60.494,4.097 60.941,2.079 61.333,0 v 0"
                   id="path228"
                   inkscape:connector-curvature="0"
                   style="fill:none;stroke-width:1;stroke-dasharray:none" />
                <g
                   id="g234">
                  <g
                     id="g232"
                     style="stroke-dasharray:none">
                    <path
                       d="M -1,-1 H 1 V 1 H -1 Z"
                       id="path230"
                       inkscape:connector-curvature="0"
                       style="fill:none;stroke-width:0" />
                  </g>
                </g>
              </g>
            </g>
            <g
               width="61.333"
               height="54.5"
               transform="translate(62,14.667)"
               id="g250">
              <g
                 id="g248"
                 style="fill:#000000;stroke:#000000;stroke-opacity:1">
                <path
                   d="m 61.333,0 v 54.5 0 L 59.223,54.354 57.168,54.146 55.164,53.88 53.209,53.559 51.299,53.187 49.433,52.767 47.608,52.3 45.822,51.789 44.075,51.235 42.363,50.64 40.687,50.005 39.046,49.332 37.437,48.621 35.861,47.874 34.316,47.091 32.803,46.273 31.32,45.422 29.867,44.536 28.443,43.617 27.049,42.666 25.683,41.681 24.346,40.665 23.038,39.617 21.758,38.536 20.506,37.424 19.283,36.28 18.088,35.104 16.921,33.896 15.783,32.655 14.674,31.383 13.595,30.077 12.544,28.738 11.524,27.365 10.534,25.958 9.575,24.517 8.648,23.039 7.753,21.525 6.891,19.974 6.064,18.385 5.272,16.755 4.516,15.085 3.798,13.371 3.12,11.614 2.483,9.81 1.889,7.957 1.341,6.053 0.842,4.095 0.393,2.078 0,0 v 0"
                   id="path240"
                   inkscape:connector-curvature="0"
                   style="fill:none;stroke-width:1;stroke-dasharray:none" />
                <g
                   id="g246">
                  <g
                     id="g244"
                     style="stroke-dasharray:none">
                    <path
                       d="m 60.333,-1 h 2 v 2 h -2 z"
                       id="path242"
                       inkscape:connector-curvature="0"
                       style="fill:none;stroke-width:0" />
                  </g>
                </g>
              </g>
            </g>
          </g>
        </g>
      </g>
    </g>
    <g
       width="226.583"
       height="559.494"
       transform="translate(167.605,262.008)"
       id="g270">
      <g
         id="g268"
         style="fill:#000000;stroke:#000000;stroke-opacity:1">
        <path
           d="M 226.583,559.494 H 0 V 0"
           id="path260"
           inkscape:connector-curvature="0"
           style="fill:none;stroke-width:12.4090004;stroke-dasharray:none" />
        <g
           id="g266">
          <g
             id="g264"
             style="stroke-dasharray:none">
            <path
               d="m 214.174,547.085 h 24.818 v 24.818 h -24.818 z"
               id="path262"
               inkscape:connector-curvature="0"
               style="fill:none;stroke-width:0" />
          </g>
        </g>
      </g>
    </g>
    <g
       width="56"
       height="56"
       transform="rotate(90,-243.709,460.753)"
       id="g296">
      <g
         width="56"
         height="56"
         id="g294">
        <g
           transform="scale(0.95726475,0.96723505)"
           id="g292">
          <g
             id="g290">
            <g
               width="56.5"
               height="43.897"
               transform="translate(0.5,0.5)"
               id="g282">
              <g
                 id="g280"
                 style="fill:#000000;stroke:#000000;stroke-opacity:1">
                <path
                   d="m 0,43.897 v 0 l 0.126,-2.233 0.22,-2.107 0.302,-1.999 0.374,-1.904 0.437,-1.819 0.494,-1.743 0.547,-1.674 0.594,-1.609 0.64,-1.55 0.682,-1.494 0.721,-1.441 0.759,-1.392 0.795,-1.344 0.828,-1.298 0.862,-1.255 0.894,-1.212 0.925,-1.171 0.954,-1.131 0.985,-1.091 1.013,-1.053 1.042,-1.016 1.069,-0.978 1.098,-0.941 L 17.487,9.538 18.64,8.671 19.82,7.84 21.029,7.046 22.265,6.29 23.529,5.57 24.822,4.889 26.144,4.246 27.495,3.642 28.877,3.078 30.289,2.556 31.734,2.076 33.211,1.639 34.722,1.249 36.27,0.905 37.855,0.612 39.479,0.371 41.145,0.186 42.857,0.061 44.616,0 l 1.812,0.008 1.869,0.085 1.933,0.169 2.004,0.264 2.086,0.373 2.18,0.498 v 0 41.833"
                   id="path272"
                   inkscape:connector-curvature="0"
                   style="fill:none;stroke-width:1;stroke-dasharray:none" />
                <g
                   id="g278">
                  <g
                     id="g276"
                     style="stroke-dasharray:none">
                    <path
                       d="m -1,42.897 h 2 v 2 h -2 z"
                       id="path274"
                       inkscape:connector-curvature="0"
                       style="fill:none;stroke-width:0" />
                  </g>
                </g>
              </g>
            </g>
            <g
               width="56.833"
               height="14.167"
               transform="translate(0.167,43.73)"
               id="g288">
              <g
                 width="56.833"
                 height="14.167"
                 id="g286"
                 style="opacity:1;fill:#ffffff;fill-opacity:1;stroke:#bfbfbf;stroke-width:0;stroke-dasharray:none;stroke-opacity:1">
                <rect
                   width="56.833"
                   height="14.167"
                   id="rect284"
                   x="0"
                   y="0" />
              </g>
            </g>
          </g>
        </g>
      </g>
    </g>
    <g
       width="100.333"
       height="12"
       transform="rotate(-90,657.792,-201.524)"
       id="g322">
      <g
         width="100.333"
         height="12"
         id="g320">
        <g
           transform="scale(1.3030299,0.88888941)"
           id="g318">
          <g
             id="g316">
            <g
               width="75"
               height="12.5"
               transform="translate(0.5,0.5)"
               id="g302">
              <g
                 width="75"
                 height="12.5"
                 id="g300"
                 style="opacity:1;fill:#ffffff;fill-opacity:1;stroke:#000000;stroke-width:1;stroke-dasharray:none;stroke-opacity:1">
                <rect
                   width="75"
                   height="12.5"
                   id="rect298"
                   x="0"
                   y="0" />
              </g>
            </g>
            <g
               width="75"
               height="0"
               transform="translate(0.5,6.667)"
               id="g314">
              <g
                 id="g312"
                 style="fill:#000000;stroke:#000000;stroke-opacity:1">
                <path
                   d="M 0,0 H 75"
                   id="path304"
                   inkscape:connector-curvature="0"
                   style="fill:none;stroke-width:1;stroke-dasharray:none" />
                <g
                   id="g310">
                  <g
                     id="g308"
                     style="stroke-dasharray:none">
                    <path
                       d="M -1,-1 H 1 V 1 H -1 Z"
                       id="path306"
                       inkscape:connector-curvature="0"
                       style="fill:none;stroke-width:0" />
                  </g>
                </g>
              </g>
            </g>
          </g>
        </g>
      </g>
    </g>
    <g
       width="100.333"
       height="12"
       transform="rotate(-90,794.517,-64.83)"
       id="g348">
      <g
         width="100.333"
         height="12"
         id="g346">
        <g
           transform="scale(1.3030299,0.88888941)"
           id="g344">
          <g
             id="g342">
            <g
               width="75"
               height="12.5"
               transform="translate(0.5,0.5)"
               id="g328">
              <g
                 width="75"
                 height="12.5"
                 id="g326"
                 style="opacity:1;fill:#ffffff;fill-opacity:1;stroke:#000000;stroke-width:1;stroke-dasharray:none;stroke-opacity:1">
                <rect
                   width="75"
                   height="12.5"
                   id="rect324"
                   x="0"
                   y="0" />
              </g>
            </g>
            <g
               width="75"
               height="0"
               transform="translate(0.5,6.667)"
               id="g340">
              <g
                 id="g338"
                 style="fill:#000000;stroke:#000000;stroke-opacity:1">
                <path
                   d="M 0,0 H 75"
                   id="path330"
                   inkscape:connector-curvature="0"
                   style="fill:none;stroke-width:1;stroke-dasharray:none" />
                <g
                   id="g336">
                  <g
                     id="g334"
                     style="stroke-dasharray:none">
                    <path
                       d="M -1,-1 H 1 V 1 H -1 Z"
                       id="path332"
                       inkscape:connector-curvature="0"
                       style="fill:none;stroke-width:0" />
                  </g>
                </g>
              </g>
            </g>
          </g>
        </g>
      </g>
    </g>
  </g>
  <rect
     style="opacity:0.2;fill:#c8ffc0;fill-opacity:1;stroke-width:0.95974249"
     id="rect358"
     width="260.0368"
     height="246.87692"
     x="16.604542"
     y="15.734542" />
  <rect
     style="opacity:0.2;fill:#c8ffc0;fill-opacity:1;stroke-width:0.96326137"
     id="rect1165"
     width="459.81171"
     height="243.2757"
     x="399.42566"
     y="285.05154" />
  <rect
     style="opacity:0.2;fill:#c8ffc0;fill-opacity:1;stroke-width:0.96866548"
     id="rect1167"
     width="459.9838"
     height="274.93881"
     x="399.25354"
     y="540.48456" />
  <rect
     style="opacity:0.1;fill:#ffd797;fill-opacity:1;stroke-width:0.94969833"
     id="rect1169"
     width="193.66975"
     height="257.6748"
     x="665.56769"
     y="16.232542" />
  <rect
     style="opacity:0.1;fill:#ffd797;fill-opacity:1;stroke-width:0.95366091"
     id="rect1171"
     width="213.41258"
     height="540.245"
     x="173.68364"
     y="274.16528" />
  <rect
     style="opacity:0.422;fill:#ffd797;fill-opacity:1"
     id="rect1175"
     width="0.17540839"
     height="51.383877"
     x="659.48901"
     y="164.5" />
  <rect
     style="opacity:0.1;fill:#ffd797;fill-opacity:1;fill-rule:nonzero;stroke-width:0.93132937"
     id="rect1177"
     width="365.62381"
     height="103.17"
     x="287.78656"
     y="170.73734" />
  <rect
     style="opacity:0.2;fill:#d5d0ff;fill-opacity:1;stroke-width:0.89744568"
     id="rect1179"
     width="97.577599"
     height="140.18358"
     x="288.79965"
     y="17.283651" />
  <rect
     style="opacity:0.2;fill:#d5d0ff;fill-opacity:1;stroke-width:0.92246974"
     id="rect1181"
     width="160.57959"
     height="141.2347"
     x="399.54764"
     y="16.232542" />
  <rect
     style="opacity:0.2;fill:#d5d0ff;fill-opacity:1;stroke-width:0.88843608"
     id="rect1183"
     width="79.099594"
     height="141.2347"
     x="573.29767"
     y="17.245651" />
  <path
     id="light.led_strip_hb"
     d="m 258.039,532.04566 32.69858,32.75299 1.93145,-1.95866 3.83569,3.8357 3.8357,-3.8357 -3.8357,-3.86288 3.8357,-3.8357 3.86289,3.8357 3.83569,-3.8357 -3.83569,-3.83569 1.95865,-1.93144 -32.75299,-32.69859 -15.36997,15.36997 m 7.69858,0 7.67139,-7.67139 25.0272,25.00001 -7.69859,7.69856 -25,-25.02718 m 3.8357,0 3.83569,3.86288 3.86289,-3.86288 -3.86289,-3.8357 -3.83569,3.8357 m 5.76713,5.79435 3.8629,3.83569 3.83569,-3.83569 -3.83569,-3.86292 -3.8629,3.86292 m 5.76714,5.76713 3.8629,3.8357 3.83569,-3.8357 -3.83569,-3.8629 -3.8629,3.8629 m 5.76714,5.76714 3.86289,3.83569 3.83569,-3.83569 -3.83569,-3.86292 z"
     inkscape:connector-curvature="0"
     style="stroke-width:2.72034764"
     inkscape:label="#path2830" />
  <path
     id="switch.0x00158d0002a36f7f_switch_right"
     d="m 742.39661,230.82349 h 9.375 v -15.62501 h 6.25 v 15.62501 h 9.375 l 12.5,25 h -50 l 12.5,-25 m 18.75,28.125 a 6.2499998,6.2500018 0 0 1 -6.25,6.24999 6.2499998,6.2500018 0 0 1 -6.25,-6.24999 z"
     inkscape:connector-curvature="0"
     inkscape:transform-center-x="2684.7375"
     inkscape:transform-center-y="-835.81482"
     style="overflow:hidden;stroke-width:3.12500095"
     inkscape:label="#path2902-1-4" />
  <path
     id="switch.0x00158d000248bf53_switch"
     d="m 326.54833,59.391389 h 7.5 V 46.891382 h 5 v 12.500007 h 7.5 l 10,19.999999 h -40 l 10,-19.999999 m 15,22.500001 a 4.9999998,5.0000011 0 0 1 -5,4.999992 4.9999998,5.0000011 0 0 1 -5,-4.999992 z"
     inkscape:connector-curvature="0"
     inkscape:transform-center-x="2147.79"
     inkscape:transform-center-y="-668.65182"
     style="overflow:hidden;stroke-width:2.50000072"
     inkscape:label="#path2902-1-7" />
  <path
     id="light.led_color_v"
     d="m 579.4526,756.19842 -4.77274,6.25 3.25804,1.875 -9.08822,11.875 c -0.11432,0 -0.25722,0 -0.40012,0 a 5.7158652,5 0 0 0 -5.71586,5 c 0,2.35 1.88623,4.375 4.51554,4.875 l 11.54604,15.125 h -10.34572 v 5 h 28.57933 v -5 h -11.43173 l -12.77496,-16.8 c 0.85738,-0.9 1.34323,-2.025 1.34323,-3.2 0,-0.75 -0.20006,-1.5 -0.57159,-2.175 l 9.14539,-11.9 c -0.62875,4.2 2.14345,8.8 7.00193,11.575 l 12.68923,-16.575 c -4.82991,-2.825 -10.77441,-3.325 -14.97557,-1.25 l -8.00222,-4.675 m 21.37734,12.5 -4.74417,6.25 c 1.9434,1.125 4.62986,0.675 5.94451,-1.05 1.31464,-1.725 0.71448,-4.05 -1.20034,-5.2 z"
     inkscape:connector-curvature="0"
     style="overflow:hidden;stroke-width:2.67298174"
     inkscape:label="#path2983-3" />
  <path
     id="light.bedside_mb"
     d="m 648.29792,294.43067 -4.38558,28.79422 h 17.54232 l -4.38558,-28.79422 h -8.77116 m 3.28918,6.09109 a 1.6445927,1.6612048 0 0 1 1.6446,1.6612 1.6445927,1.6612048 0 0 1 -1.6446,1.66121 1.6445927,1.6612048 0 0 1 -1.64459,-1.66121 1.6445927,1.6612048 0 0 1 1.64459,-1.6612 m 2.19279,6.09108 a 2.1927903,2.2149397 0 0 1 2.19279,2.21495 2.1927903,2.2149397 0 0 1 -2.19279,2.21493 2.1927903,2.2149397 0 0 1 -2.19279,-2.21493 2.1927903,2.2149397 0 0 1 2.19279,-2.21495 m -2.19279,7.75229 a 3.2891855,3.3224096 0 0 1 3.28919,3.32241 3.2891855,3.3224096 0 0 1 -3.28919,3.32241 3.2891855,3.3224096 0 0 1 -3.28918,-3.32241 3.2891855,3.3224096 0 0 1 3.28918,-3.32241 m -7.67476,11.0747 4.38558,4.42988 -4.38558,4.42988 h 17.54232 l -4.38558,-4.42988 4.38558,-4.42988 z"
     inkscape:connector-curvature="0"
     style="stroke-width:2.20383692"
     inkscape:label="#path3019" />
  <path
     id="light.philips_e27_s"
     d="m 630.04248,541.41943 -4.77274,6.25 3.25804,1.875 -9.08822,11.875 c -0.11432,0 -0.25722,0 -0.40012,0 a 5.7158652,5 0 0 0 -5.71586,5 c 0,2.35 1.88623,4.375 4.51554,4.875 l 11.54604,15.125 h -10.34572 v 5 h 28.57933 v -5 h -11.43173 l -12.77496,-16.8 c 0.85738,-0.9 1.34323,-2.025 1.34323,-3.2 0,-0.75 -0.20006,-1.5 -0.57159,-2.175 l 9.14539,-11.9 c -0.62875,4.2 2.14345,8.8 7.00193,11.575 l 12.68923,-16.575 c -4.82991,-2.825 -10.77441,-3.325 -14.97557,-1.25 l -8.00222,-4.675 m 21.37734,12.5 -4.74417,6.25 c 1.9434,1.125 4.62986,0.675 5.94451,-1.05 1.31464,-1.725 0.71448,-4.05 -1.20034,-5.2 z"
     inkscape:connector-curvature="0"
     style="overflow:hidden;stroke-width:2.67298174"
     inkscape:label="#path2983-3-2" />
  <path
     style="stroke-width:2.5"
     d="m 136.70378,97.874524 c 16.21234,-0.61557 29.24288,17.096546 23.88341,32.388006 -4.20605,15.65979 -24.96996,22.9019 -37.99947,13.24538 -13.72282,-8.64622 -14.50102,-30.62128 -1.42419,-40.21656 4.37399,-3.489326 9.94576,-5.430746 15.54025,-5.416826 z m 0,4.999996 c -12.96987,-0.49246 -23.3943,13.67724 -19.10673,25.9104 3.36484,12.52784 19.97597,18.32153 30.39958,10.59631 10.97826,-6.91698 11.60082,-24.49702 1.13935,-32.17325 -3.49919,-2.79146 -7.95661,-4.3446 -12.4322,-4.33346 z m 0,37.5 c -6.03484,0.089 -11.78381,-3.39521 -14.797,-8.57458 -3.80218,-5.66296 -3.51478,-13.58682 0.60148,-19.00442 4.21378,-5.50074 11.67941,-8.83813 18.53726,-6.85795 7.18719,1.82381 12.56543,8.75123 13.13226,16.05231 0.41261,6.1703 -2.92691,12.27028 -8.19237,15.45454 -2.7458,1.80038 -5.97622,2.94067 -9.28163,2.9301 z"
     id="light.round_led_mb"
     inkscape:connector-curvature="0" />
  <path
     id="light.square_led_v"
     d="m 644.00898,434.61045 h -40 a 5,5 0 0 1 -5,-5 v -30 a 5,5 0 0 1 5,-5 h 40 a 5,5 0 0 1 5,5 v 30 a 5,5 0 0 1 -5,5 z"
     inkscape:connector-curvature="0"
     style="stroke-width:2.50000119"
     inkscape:label="#path3086" />
  <path
     id="switch.0x00158d0001a248e9_switch_l1"
     d="m 543.05392,32.616028 a 1.4977534,1.5 0 0 0 -1.49775,1.5 1.4977534,1.5 0 0 0 1.49775,1.5 1.4977534,1.5 0 0 0 1.49776,-1.5 1.4977534,1.5 0 0 0 -1.49776,-1.5 m 0.74888,-13.5 c 6.73989,0 6.90464,5.355 3.36995,7.125 -1.48278,0.735 -2.14179,2.31 -2.42636,3.705 0.71892,0.3 1.34797,0.765 1.82725,1.365 5.54169,-3 11.50275,-1.815 11.50275,3.555 0,6.75 -5.34698,6.9 -7.11433,3.345 -0.74888,-1.485 -2.33649,-2.145 -3.7294,-2.43 -0.29956,0.72 -0.76386,1.335 -1.36296,1.845 2.98053,5.535 1.7973,11.49 -3.56465,11.49 -6.73989,0 -6.87469,-5.37 -3.33999,-7.14 1.4678,-0.735 2.12681,-2.295 2.42636,-3.675 -0.7339,-0.3 -1.37794,-0.78 -1.85722,-1.38 -5.52671,2.97 -11.45781,1.8 -11.45781,-3.555 0,-6.75 5.332,-6.915 7.09935,-3.36 0.74888,1.485 2.32152,2.13 3.71443,2.415 0.28457,-0.72 0.76385,-1.35 1.37793,-1.83 -2.98053,-5.535 -1.7973,-11.475 3.5347,-11.475 z"
     inkscape:connector-curvature="0"
     style="stroke-width:1.49887633"
     inkscape:label="#path3212" />
  <path
     id="switch.0x00158d0001a248e9_switch_l2"
     d="m 590.75056,32.616028 a 1.4977534,1.5 0 0 0 -1.49775,1.5 1.4977534,1.5 0 0 0 1.49775,1.5 1.4977534,1.5 0 0 0 1.49776,-1.5 1.4977534,1.5 0 0 0 -1.49776,-1.5 m 0.74888,-13.5 c 6.73989,0 6.90464,5.355 3.36995,7.125 -1.48278,0.735 -2.14179,2.31 -2.42636,3.705 0.71892,0.3 1.34797,0.765 1.82725,1.365 5.54169,-3 11.50275,-1.815 11.50275,3.555 0,6.75 -5.34698,6.9 -7.11433,3.345 -0.74888,-1.485 -2.33649,-2.145 -3.7294,-2.43 -0.29956,0.72 -0.76386,1.335 -1.36296,1.845 2.98053,5.535 1.7973,11.49 -3.56465,11.49 -6.73989,0 -6.87469,-5.37 -3.33999,-7.14 1.4678,-0.735 2.12681,-2.295 2.42636,-3.675 -0.7339,-0.3 -1.37794,-0.78 -1.85722,-1.38 -5.52671,2.97 -11.45781,1.8 -11.45781,-3.555 0,-6.75 5.332,-6.915 7.09935,-3.36 0.74888,1.485 2.32152,2.13 3.71443,2.415 0.28457,-0.72 0.76385,-1.35 1.37793,-1.83 -2.98053,-5.535 -1.7973,-11.475 3.5347,-11.475 z"
     inkscape:connector-curvature="0"
     style="overflow:hidden;stroke-width:1.49887633"
     inkscape:label="#path3212-7" />
  <path
     id="switch.0x00158d0002a36e26_switch_right"
     d="m 435.96405,79.616031 h 7.5 V 67.116024 h 5 v 12.500007 h 7.5 l 10,20.000003 h -40 l 10,-20.000003 m 15,22.500009 a 4.9999998,5.0000011 0 0 1 -5,4.99999 4.9999998,5.0000011 0 0 1 -5,-4.99999 z"
     inkscape:connector-curvature="0"
     inkscape:transform-center-x="2147.79"
     inkscape:transform-center-y="-668.65182"
     style="overflow:hidden;stroke-width:2.50000072"
     inkscape:label="#path2902-1-4-2" />
  <path
     id="switch.0x00158d0002a36f7f_switch_left"
     d="m 604.14007,79.616035 h 7.5 V 67.116021 h 5 v 12.500014 h 7.5 l 10,20 h -40 l 10,-20 m 15,22.500005 a 4.9999998,5.0000013 0 0 1 -5,4.99999 4.9999998,5.0000013 0 0 1 -5,-4.99999 z"
     inkscape:connector-curvature="0"
     inkscape:transform-center-x="2147.79"
     inkscape:transform-center-y="-668.65184"
     style="overflow:hidden;stroke-width:2.50000095"
     inkscape:label="#path2902-1-4-1" />
  <path
     id="switch.0x00158d000253f04a_switch_right"
     d="m 268.039,386.69098 h 7.5 v -12.50001 h 5 v 12.50001 h 7.5 l 10,20 h -40 l 10,-20 m 15,22.5 a 4.9999998,5.0000011 0 0 1 -5,4.99999 4.9999998,5.0000011 0 0 1 -5,-4.99999 z"
     inkscape:connector-curvature="0"
     inkscape:transform-center-x="2147.79"
     inkscape:transform-center-y="-668.65182"
     style="overflow:hidden;stroke-width:2.50000072"
     inkscape:label="#path2902-1-7-4" />
  <path
     id="switch.0x00158d000223921b_switch_left"
     d="m 268.039,668.33515 h 7.5 v -12.5 h 5 v 12.5 h 7.5 l 10,20 h -40 l 10,-20 m 15,22.50001 a 4.9999998,5.0000011 0 0 1 -5,4.99999 4.9999998,5.0000011 0 0 1 -5,-4.99999 z"
     inkscape:connector-curvature="0"
     inkscape:transform-center-x="2147.79"
     inkscape:transform-center-y="-668.65182"
     style="overflow:hidden;stroke-width:2.50000072"
     inkscape:label="#path2902-1-7-9" />
  <path
     id="camera.digma100"
     d="m 367.64644,777.68721 c -0.61099,-0.0482 -1.25414,0.0965 -1.84905,0.41805 l -13.90803,8.03932 c -1.54355,0.90041 -2.05807,2.89416 -1.17374,4.40555 l 2.4118,4.16437 c 0.88432,1.55963 2.84592,2.07415 4.38947,1.18982 l 2.89416,-1.67218 c 0.43412,0.73962 1.07727,1.33453 1.86512,1.67218 v 2.84592 c 0,1.75258 1.431,3.15142 3.21573,3.15142 h 8.34482 v -3.15142 h -8.34482 v -2.84592 c 1.46316,-0.64314 2.4118,-2.09022 2.4118,-3.64985 0,-0.73962 -0.19295,-1.431 -0.54668,-2.04199 l 4.0679,-2.34748 c 1.55963,-0.90041 2.09023,-2.84592 1.18982,-4.40555 l -2.4118,-4.16437 c -0.54667,-0.96472 -1.52747,-1.5114 -2.5565,-1.60787 m -19.18183,13.23273 -6.78519,1.12551 1.2059,2.09022 3.21573,5.56321 1.2059,2.09023 4.37339,-5.30596 z"
     inkscape:connector-curvature="0"
     style="stroke-width:1.6078651"
     inkscape:label="#path3290" />
  <path
     id="camera.uvc_g3_flex_hall"
     d="m 274.44044,279.76433 c -0.61099,-0.0482 -1.25414,0.0965 -1.84905,0.41805 l -13.90803,8.03932 c -1.54355,0.90041 -2.05807,2.89416 -1.17374,4.40555 l 2.4118,4.16437 c 0.88432,1.55963 2.84592,2.07415 4.38947,1.18982 l 2.89416,-1.67218 c 0.43412,0.73962 1.07727,1.33453 1.86512,1.67218 v 2.84592 c 0,1.75258 1.431,3.15142 3.21573,3.15142 h 8.34482 v -3.15142 h -8.34482 v -2.84592 c 1.46316,-0.64314 2.4118,-2.09022 2.4118,-3.64985 0,-0.73962 -0.19295,-1.431 -0.54668,-2.04199 l 4.0679,-2.34748 c 1.55963,-0.90041 2.09023,-2.84592 1.18982,-4.40555 l -2.4118,-4.16437 c -0.54667,-0.96472 -1.52747,-1.5114 -2.5565,-1.60787 m -19.18183,13.23273 -6.78519,1.12551 1.2059,2.09022 3.21573,5.56321 1.2059,2.09023 4.37339,-5.30596 z"
     inkscape:connector-curvature="0"
     style="overflow:hidden;stroke-width:1.6078651"
     inkscape:label="#path3290-4" />
  <path
     id="switch.0x00158d0002a36e26_switch_left"
     d="m 511.88165,221.55429 h 7.5 v -12.5 h 5 v 12.5 h 7.5 l 10,20.00001 h -40 l 10,-20.00001 m 15,22.50001 a 4.9999998,5.0000011 0 0 1 -5,4.99999 4.9999998,5.0000011 0 0 1 -5,-4.99999 z"
     inkscape:connector-curvature="0"
     inkscape:transform-center-x="2147.79"
     inkscape:transform-center-y="-668.65182"
     style="overflow:hidden;stroke-width:2.50000072"
     inkscape:label="#path2902-1-4-2-3" />
  <path
     id="switch.0x00158d0001f5501f_switch"
     d="m 427.43897,216.68404 20.77279,20.80735 1.22701,-1.2443 2.43674,2.43675 2.43675,-2.43675 -2.43675,-2.45401 2.43675,-2.43675 2.45402,2.43675 2.43674,-2.43675 -2.43674,-2.43674 1.24429,-1.22701 -20.80735,-20.77279 -9.76425,9.76425 m 4.89076,0 4.87349,-4.87349 15.89931,15.88203 -4.89077,4.89075 -15.88203,-15.89929 m 2.43675,0 2.43674,2.45401 2.45402,-2.45401 -2.45402,-2.43675 -2.43674,2.43675 m 3.66375,3.68104 2.45403,2.43674 2.43674,-2.43674 -2.43674,-2.45404 -2.45403,2.45404 m 3.66375,3.66375 2.45403,2.43674 2.43674,-2.43674 -2.43674,-2.45403 -2.45403,2.45403 m 3.66376,3.66375 2.45402,2.43674 2.43674,-2.43674 -2.43674,-2.45404 z"
     inkscape:connector-curvature="0"
     style="overflow:hidden;stroke-width:1.72818494"
     inkscape:label="#path2830" />
  <path
     id="switch.0x00158d000216528c_switch"
     d="m 672.14942,34.498326 20.77279,20.80735 1.22701,-1.2443 2.43674,2.43675 2.43675,-2.43675 -2.43675,-2.45401 2.43675,-2.43675 2.45402,2.43675 2.43674,-2.43675 -2.43674,-2.43674 1.24429,-1.22701 -20.80735,-20.77279 -9.76425,9.76425 m 4.89076,0 4.87349,-4.87349 15.89931,15.88203 -4.89077,4.89075 -15.88203,-15.89929 m 2.43675,0 2.43674,2.45401 2.45402,-2.45401 -2.45402,-2.43675 -2.43674,2.43675 m 3.66375,3.68104 2.45403,2.43674 2.43674,-2.43674 -2.43674,-2.45404 -2.45403,2.45404 m 3.66375,3.66375 2.45403,2.43674 2.43674,-2.43674 -2.43674,-2.45403 -2.45403,2.45403 m 3.66376,3.66375 2.45402,2.43674 2.43674,-2.43674 -2.43674,-2.45404 z"
     inkscape:connector-curvature="0"
     style="overflow:hidden;stroke-width:1.72818494"
     inkscape:label="#path2830"
     inkscape:transform-center-x="-6.0786513"
     inkscape:transform-center-y="14.18352" />
  <path
     id="fan.purifier2s"
     d="m 615.06516,305.56364 a 1.4977534,1.5 0 0 0 -1.49775,1.5 1.4977534,1.5 0 0 0 1.49775,1.5 1.4977534,1.5 0 0 0 1.49776,-1.5 1.4977534,1.5 0 0 0 -1.49776,-1.5 m 0.74888,-13.5 c 6.73989,0 6.90464,5.355 3.36995,7.125 -1.48278,0.735 -2.14179,2.31 -2.42636,3.705 0.71892,0.3 1.34797,0.765 1.82725,1.365 5.54169,-3 11.50275,-1.815 11.50275,3.555 0,6.75 -5.34698,6.9 -7.11433,3.345 -0.74888,-1.485 -2.33649,-2.145 -3.7294,-2.43 -0.29956,0.72 -0.76386,1.335 -1.36296,1.845 2.98053,5.535 1.7973,11.49 -3.56465,11.49 -6.73989,0 -6.87469,-5.37 -3.33999,-7.14 1.4678,-0.735 2.12681,-2.295 2.42636,-3.675 -0.7339,-0.3 -1.37794,-0.78 -1.85722,-1.38 -5.52671,2.97 -11.45781,1.8 -11.45781,-3.555 0,-6.75 5.332,-6.915 7.09935,-3.36 0.74888,1.485 2.32152,2.13 3.71443,2.415 0.28457,-0.72 0.76385,-1.35 1.37793,-1.83 -2.98053,-5.535 -1.7973,-11.475 3.5347,-11.475 z"
     inkscape:connector-curvature="0"
     style="overflow:hidden;stroke-width:1.49887633"
     inkscape:label="#path3212" />
  <path
     id="fan.humidifier2"
     d="m 815.66065,558.84078 a 1.4977534,1.5 0 0 0 -1.49775,1.5 1.4977534,1.5 0 0 0 1.49775,1.5 1.4977534,1.5 0 0 0 1.49776,-1.5 1.4977534,1.5 0 0 0 -1.49776,-1.5 m 0.74888,-13.5 c 6.73989,0 6.90464,5.355 3.36995,7.125 -1.48278,0.735 -2.14179,2.31 -2.42636,3.705 0.71892,0.3 1.34797,0.765 1.82725,1.365 5.54169,-3 11.50275,-1.815 11.50275,3.555 0,6.75 -5.34698,6.9 -7.11433,3.345 -0.74888,-1.485 -2.33649,-2.145 -3.7294,-2.43 -0.29956,0.72 -0.76386,1.335 -1.36296,1.845 2.98053,5.535 1.7973,11.49 -3.56465,11.49 -6.73989,0 -6.87469,-5.37 -3.33999,-7.14 1.4678,-0.735 2.12681,-2.295 2.42636,-3.675 -0.7339,-0.3 -1.37794,-0.78 -1.85722,-1.38 -5.52671,2.97 -11.45781,1.8 -11.45781,-3.555 0,-6.75 5.332,-6.915 7.09935,-3.36 0.74888,1.485 2.32152,2.13 3.71443,2.415 0.28457,-0.72 0.76385,-1.35 1.37793,-1.83 -2.98053,-5.535 -1.7973,-11.475 3.5347,-11.475 z"
     inkscape:connector-curvature="0"
     style="overflow:hidden;stroke-width:1.49887633"
     inkscape:label="#path3212" />
  <path
     id="binary_sensor.0x00158d000224f89f_occupancy"
     d="m 489.25764,780.29807 a 3,2.7906977 0 0 0 3,-2.7907 3,2.7906977 0 0 0 -3,-2.7907 3,2.7906977 0 0 0 -3,2.7907 3,2.7906977 0 0 0 3,2.7907 m -5.4,19.39534 1.5,-6.13953 3.15,2.7907 v 8.37209 h 3 v -10.46512 l -3.15,-2.79069 0.9,-4.18605 c 2.085,2.2186 5.085,3.48837 8.25,3.48837 v -2.7907 c -2.64,0.0419 -5.1,-1.24186 -6.45,-3.34883 l -1.5,-2.23256 c -0.54,-0.83721 -1.5,-1.39535 -2.55,-1.39535 -0.45,0 -0.75,0.13953 -1.2,0.13953 l -7.8,3.06977 v 6.55814 h 3 V 786.019 l 2.7,-0.97675 -2.4,11.30233 -7.35,-1.39535 -0.6,2.7907 10.5,1.95348 m -13.35,-14.51162 a 1.5,1.3953488 0 0 1 -1.5,-1.39535 1.5,1.3953488 0 0 1 1.5,-1.39535 h 4.5 v 2.7907 h -4.5 m 1.5,-5.5814 a 1.5,1.3953488 0 0 1 -1.5,-1.39535 1.5,1.3953488 0 0 1 1.5,-1.39535 h 7.5 v 2.7907 h -7.5 m -3,11.16279 a 1.5,1.3953488 0 0 1 -1.5,-1.39535 1.5,1.3953488 0 0 1 1.5,-1.39535 h 6 v 2.7907 z"
     inkscape:connector-curvature="0"
     style="stroke-width:1.44672847"
     inkscape:label="#path1103" />
  <path
     id="binary_sensor.0x00158d000236bb94_occupancy"
     d="m 570.02422,493.10599 a 3,2.7906977 0 0 0 3,-2.7907 3,2.7906977 0 0 0 -3,-2.7907 3,2.7906977 0 0 0 -3,2.7907 3,2.7906977 0 0 0 3,2.7907 m -5.4,19.39534 1.5,-6.13953 3.15,2.7907 v 8.37209 h 3 v -10.46512 l -3.15,-2.79069 0.9,-4.18605 c 2.085,2.2186 5.085,3.48837 8.25,3.48837 v -2.7907 c -2.64,0.0419 -5.1,-1.24186 -6.45,-3.34883 l -1.5,-2.23256 c -0.54,-0.83721 -1.5,-1.39535 -2.55,-1.39535 -0.45,0 -0.75,0.13953 -1.2,0.13953 l -7.8,3.06977 v 6.55814 h 3 v -4.74418 l 2.7,-0.97675 -2.4,11.30233 -7.35,-1.39535 -0.6,2.7907 10.5,1.95348 m -13.35,-14.51162 a 1.5,1.3953488 0 0 1 -1.5,-1.39535 1.5,1.3953488 0 0 1 1.5,-1.39535 h 4.5 v 2.7907 h -4.5 m 1.5,-5.5814 a 1.5,1.3953488 0 0 1 -1.5,-1.39535 1.5,1.3953488 0 0 1 1.5,-1.39535 h 7.5 v 2.7907 h -7.5 m -3,11.16279 a 1.5,1.3953488 0 0 1 -1.5,-1.39535 1.5,1.3953488 0 0 1 1.5,-1.39535 h 6 v 2.7907 z"
     inkscape:connector-curvature="0"
     style="overflow:hidden;stroke-width:1.44672847"
     inkscape:label="#path1103-4" />
  <path
     id="binary_sensor.0x00158d0002b4729d_occupancy"
     d="m 764.87847,28.8944 a 3,2.7906977 0 0 0 3,-2.7907 3,2.7906977 0 0 0 -3,-2.7907 3,2.7906977 0 0 0 -3,2.7907 3,2.7906977 0 0 0 3,2.7907 m -5.4,19.39534 1.5,-6.13953 3.15,2.7907 V 53.313 h 3 V 42.84788 l -3.15,-2.79069 0.9,-4.18605 c 2.085,2.2186 5.085,3.48837 8.25,3.48837 v -2.7907 c -2.64,0.0419 -5.1,-1.24186 -6.45,-3.34883 l -1.5,-2.23256 c -0.54,-0.83721 -1.5,-1.39535 -2.55,-1.39535 -0.45,0 -0.75,0.13953 -1.2,0.13953 l -7.8,3.06977 v 6.55814 h 3 v -4.74418 l 2.7,-0.97675 -2.4,11.30233 -7.35,-1.39535 -0.6,2.7907 10.5,1.95348 m -13.35,-14.51162 a 1.5,1.3953488 0 0 1 -1.5,-1.39535 1.5,1.3953488 0 0 1 1.5,-1.39535 h 4.5 v 2.7907 h -4.5 m 1.5,-5.5814 a 1.5,1.3953488 0 0 1 -1.5,-1.39535 1.5,1.3953488 0 0 1 1.5,-1.39535 h 7.5 v 2.7907 h -7.5 m -3,11.16279 a 1.5,1.3953488 0 0 1 -1.5,-1.39535 1.5,1.3953488 0 0 1 1.5,-1.39535 h 6 v 2.7907 z"
     inkscape:connector-curvature="0"
     style="overflow:hidden;stroke-width:1.44672847"
     inkscape:label="#path1103-7" />
  <path
     id="binary_sensor.0x00158d0001e54280_occupancy"
     d="m 641.66181,132.69743 a 3,2.7906977 0 0 0 3,-2.7907 3,2.7906977 0 0 0 -3,-2.7907 3,2.7906977 0 0 0 -3,2.7907 3,2.7906977 0 0 0 3,2.7907 m -5.4,19.39534 1.5,-6.13953 3.15,2.7907 v 8.37209 h 3 v -10.46512 l -3.15,-2.79069 0.9,-4.18605 c 2.085,2.2186 5.085,3.48837 8.25,3.48837 v -2.7907 c -2.64,0.0419 -5.1,-1.24186 -6.45,-3.34883 l -1.5,-2.23256 c -0.54,-0.83721 -1.5,-1.39535 -2.55,-1.39535 -0.45,0 -0.75,0.13953 -1.2,0.13953 l -7.8,3.06977 v 6.55814 h 3 v -4.74418 l 2.7,-0.97675 -2.4,11.30233 -7.35,-1.39535 -0.6,2.7907 10.5,1.95348 m -13.35,-14.51162 a 1.5,1.3953488 0 0 1 -1.5,-1.39535 1.5,1.3953488 0 0 1 1.5,-1.39535 h 4.5 v 2.7907 h -4.5 m 1.5,-5.5814 a 1.5,1.3953488 0 0 1 -1.5,-1.39535 1.5,1.3953488 0 0 1 1.5,-1.39535 h 7.5 v 2.7907 h -7.5 m -3,11.16279 a 1.5,1.3953488 0 0 1 -1.5,-1.39535 1.5,1.3953488 0 0 1 1.5,-1.39535 h 6 v 2.7907 z"
     inkscape:connector-curvature="0"
     style="overflow:hidden;stroke-width:1.44672847"
     inkscape:label="#path1103-75" />
  <path
     id="binary_sensor.0x00158d000236bc6d_occupancy"
     d="m 549.96569,132.69743 a 3,2.7906977 0 0 0 3,-2.7907 3,2.7906977 0 0 0 -3,-2.7907 3,2.7906977 0 0 0 -3,2.7907 3,2.7906977 0 0 0 3,2.7907 m -5.4,19.39534 1.5,-6.13953 3.15,2.7907 v 8.37209 h 3 v -10.46512 l -3.15,-2.79069 0.9,-4.18605 c 2.085,2.2186 5.085,3.48837 8.25,3.48837 v -2.7907 c -2.64,0.0419 -5.1,-1.24186 -6.45,-3.34883 l -1.5,-2.23256 c -0.54,-0.83721 -1.5,-1.39535 -2.55,-1.39535 -0.45,0 -0.75,0.13953 -1.2,0.13953 l -7.8,3.06977 v 6.55814 h 3 v -4.74418 l 2.7,-0.97675 -2.4,11.30233 -7.35,-1.39535 -0.6,2.7907 10.5,1.95348 m -13.35,-14.51162 a 1.5,1.3953488 0 0 1 -1.5,-1.39535 1.5,1.3953488 0 0 1 1.5,-1.39535 h 4.5 v 2.7907 h -4.5 m 1.5,-5.5814 a 1.5,1.3953488 0 0 1 -1.5,-1.39535 1.5,1.3953488 0 0 1 1.5,-1.39535 h 7.5 v 2.7907 h -7.5 m -3,11.16279 a 1.5,1.3953488 0 0 1 -1.5,-1.39535 1.5,1.3953488 0 0 1 1.5,-1.39535 h 6 v 2.7907 z"
     inkscape:connector-curvature="0"
     style="overflow:hidden;stroke-width:1.44672847"
     inkscape:label="#path1103-2" />
  <path
     id="binary_sensor.0x00158d0001aea602_occupancy"
     d="m 312.12889,132.69743 a 3,2.7906977 0 0 0 3,-2.7907 3,2.7906977 0 0 0 -3,-2.7907 3,2.7906977 0 0 0 -3,2.7907 3,2.7906977 0 0 0 3,2.7907 m -5.4,19.39534 1.5,-6.13953 3.15,2.7907 v 8.37209 h 3 v -10.46512 l -3.15,-2.79069 0.9,-4.18605 c 2.085,2.2186 5.085,3.48837 8.25,3.48837 v -2.7907 c -2.64,0.0419 -5.1,-1.24186 -6.45,-3.34883 l -1.5,-2.23256 c -0.54,-0.83721 -1.5,-1.39535 -2.55,-1.39535 -0.45,0 -0.75,0.13953 -1.2,0.13953 l -7.8,3.06977 v 6.55814 h 3 v -4.74418 l 2.7,-0.97675 -2.4,11.30233 -7.35,-1.39535 -0.6,2.7907 10.5,1.95348 m -13.35,-14.51162 a 1.5,1.3953488 0 0 1 -1.5,-1.39535 1.5,1.3953488 0 0 1 1.5,-1.39535 h 4.5 v 2.7907 h -4.5 m 1.5,-5.5814 a 1.5,1.3953488 0 0 1 -1.5,-1.39535 1.5,1.3953488 0 0 1 1.5,-1.39535 h 7.5 v 2.7907 h -7.5 m -3,11.16279 a 1.5,1.3953488 0 0 1 -1.5,-1.39535 1.5,1.3953488 0 0 1 1.5,-1.39535 h 6 v 2.7907 z"
     inkscape:connector-curvature="0"
     style="overflow:hidden;stroke-width:1.44672847"
     inkscape:label="#path1103-5" />
  <path
     id="binary_sensor.0x00158d0001e53cda_occupancy"
     d="m 112.40914,234.07616 a 3,2.7906977 0 0 0 3,-2.7907 3,2.7906977 0 0 0 -3,-2.7907 3,2.7906977 0 0 0 -3,2.7907 3,2.7906977 0 0 0 3,2.7907 m -5.4,19.39534 1.5,-6.13953 3.15,2.7907 v 8.37209 h 3 v -10.46512 l -3.15,-2.79069 0.9,-4.18605 c 2.085,2.2186 5.085,3.48837 8.25,3.48837 v -2.7907 c -2.64,0.0419 -5.1,-1.24186 -6.45,-3.34883 l -1.5,-2.23256 c -0.54,-0.83721 -1.5,-1.39535 -2.55,-1.39535 -0.45,0 -0.75,0.13953 -1.2,0.13953 l -7.8,3.06977 v 6.55814 h 3 v -4.74418 l 2.7,-0.97675 -2.4,11.30233 -7.349995,-1.39535 -0.6,2.7907 10.499995,1.95348 M 93.659145,238.95988 a 1.5,1.3953488 0 0 1 -1.5,-1.39535 1.5,1.3953488 0 0 1 1.5,-1.39535 h 4.499995 v 2.7907 h -4.499995 m 1.5,-5.5814 a 1.5,1.3953488 0 0 1 -1.5,-1.39535 1.5,1.3953488 0 0 1 1.5,-1.39535 h 7.499995 v 2.7907 h -7.499995 m -3,11.16279 a 1.5,1.3953488 0 0 1 -1.5,-1.39535 1.5,1.3953488 0 0 1 1.5,-1.39535 h 5.999995 v 2.7907 z"
     inkscape:connector-curvature="0"
     style="overflow:hidden;stroke-width:1.44672847;fill:#00000b;fill-opacity:1"
     inkscape:label="#path1103-1" />
  <path
     id="binary_sensor.0x00158d0001e05856_occupancy"
     d="m 203.23976,576.20559 a 3,2.7906977 0 0 0 3,-2.7907 3,2.7906977 0 0 0 -3,-2.7907 3,2.7906977 0 0 0 -3,2.7907 3,2.7906977 0 0 0 3,2.7907 m -5.4,19.39534 1.5,-6.13953 3.15,2.7907 v 8.37209 h 3 v -10.46512 l -3.15,-2.79069 0.9,-4.18605 c 2.085,2.2186 5.085,3.48837 8.25,3.48837 V 583.88 c -2.64,0.0419 -5.1,-1.24186 -6.45,-3.34883 l -1.5,-2.23256 c -0.54,-0.83721 -1.5,-1.39535 -2.55,-1.39535 -0.45,0 -0.75,0.13953 -1.2,0.13953 l -7.8,3.06977 v 6.55814 h 3 v -4.74418 l 2.7,-0.97675 -2.4,11.30233 -7.35,-1.39535 -0.6,2.7907 10.5,1.95348 m -13.35,-14.51162 a 1.5,1.3953488 0 0 1 -1.5,-1.39535 1.5,1.3953488 0 0 1 1.5,-1.39535 h 4.5 v 2.7907 h -4.5 m 1.5,-5.5814 a 1.5,1.3953488 0 0 1 -1.5,-1.39535 1.5,1.3953488 0 0 1 1.5,-1.39535 h 7.5 v 2.7907 h -7.5 m -3,11.16279 a 1.5,1.3953488 0 0 1 -1.5,-1.39535 1.5,1.3953488 0 0 1 1.5,-1.39535 h 6 v 2.7907 z"
     inkscape:connector-curvature="0"
     style="overflow:hidden;stroke-width:1.44672847"
     inkscape:label="#path1103-13" />
  <path
     id="binary_sensor.0x00158d0001ae9f61_occupancy"
     d="m 415.28702,215.15214 a 3,2.7906977 0 0 0 3,-2.7907 3,2.7906977 0 0 0 -3,-2.7907 3,2.7906977 0 0 0 -3,2.7907 3,2.7906977 0 0 0 3,2.7907 m -5.4,19.39534 1.5,-6.13953 3.15,2.7907 v 8.37209 h 3 v -10.46512 l -3.15,-2.79069 0.9,-4.18605 c 2.085,2.2186 5.085,3.48837 8.25,3.48837 v -2.7907 c -2.64,0.0419 -5.1,-1.24186 -6.45,-3.34883 l -1.5,-2.23256 c -0.54,-0.83721 -1.5,-1.39535 -2.55,-1.39535 -0.45,0 -0.75,0.13953 -1.2,0.13953 l -7.8,3.06977 v 6.55814 h 3 v -4.74418 l 2.7,-0.97675 -2.4,11.30233 -7.35,-1.39535 -0.6,2.7907 10.5,1.95348 m -13.35,-14.51162 a 1.5,1.3953488 0 0 1 -1.5,-1.39535 1.5,1.3953488 0 0 1 1.5,-1.39535 h 4.5 v 2.7907 h -4.5 m 1.5,-5.5814 a 1.5,1.3953488 0 0 1 -1.5,-1.39535 1.5,1.3953488 0 0 1 1.5,-1.39535 h 7.5 v 2.7907 h -7.5 m -3,11.16279 a 1.5,1.3953488 0 0 1 -1.5,-1.39535 1.5,1.3953488 0 0 1 1.5,-1.39535 h 6 v 2.7907 z"
     inkscape:connector-curvature="0"
     style="overflow:hidden;stroke-width:1.44672847"
     inkscape:label="#path1103-46" />
  <path
     id="binary_sensor.0x00158d0001e5d6be_contact"
     d="m 161.61026,704.13911 h 8 v 55.25155 h -8 z"
     inkscape:connector-curvature="0"
     style="stroke-width:3.50401568"
     inkscape:label="#path2794" />
  <path
     id="binary_sensor.0x00158d00027129ae_contact"
     d="m 390.79157,627.44064 h 8 v 116.54462 h -8 z"
     inkscape:connector-curvature="0"
     style="overflow:hidden;stroke-width:5.08908844"
     inkscape:label="#path2794" />
  <path
     id="binary_sensor.door_window_sensor_158d0002529b9c"
     d="m 390.92588,375.05392 h 8 v 54.26653 h -8 z"
     inkscape:connector-curvature="0"
     style="overflow:hidden;stroke-width:3.47264075"
     inkscape:label="#path2794" />
  <path
     id="binary_sensor.0x00158d00025315e9_contact"
     d="m 280.30726,184.3252 h 8 v 54.15525 h -8 z"
     inkscape:connector-curvature="0"
     style="overflow:hidden;stroke-width:3.4690783"
     inkscape:label="#path2794"
     inkscape:transform-center-y="2.8086441" />
  <path
     id="binary_sensor.0x00158d0002a14c5e_contact"
     d="m 554.47805,162.41079 v 8 H 500.3228 v -8 z"
     inkscape:connector-curvature="0"
     style="overflow:hidden;stroke-width:3.4690783"
     inkscape:label="#path2794"
     inkscape:transform-center-x="2.8086451" />
  <path
     id="binary_sensor.0x00158d0001ef2ffc_contact"
     d="m 642.61849,162.13951 v 8 h -54.15525 v -8 z"
     inkscape:connector-curvature="0"
     style="overflow:hidden;stroke-width:3.4690783"
     inkscape:label="#path2794"
     inkscape:transform-center-x="2.8086451" />
  <path
     id="binary_sensor.0x00158d000200ad58_contact"
     d="m 13.09,167.75868 h -3 V 71.516348 h 3 z"
     inkscape:connector-curvature="0"
     style="overflow:hidden;stroke-width:2.83199525"
     inkscape:label="#path2794"
     inkscape:transform-center-y="-4.991403" />
  <path
     id="binary_sensor.0x00158d00025371f6_contact"
     d="m 866.82544,198.89746 h -3 v -96.42142 h 3 z"
     inkscape:connector-curvature="0"
     style="overflow:hidden;stroke-width:2.83462906"
     inkscape:label="#path2794"
     inkscape:transform-center-y="-5.0006883" />
  <path
     id="binary_sensor.0x00158d00022ccffe_contact"
     d="m 866.90576,455.03238 h -3 v -96.42142 h 3 z"
     inkscape:connector-curvature="0"
     style="overflow:hidden;stroke-width:2.83462906"
     inkscape:label="#path2794"
     inkscape:transform-center-y="-5.0006883" />
  <path
     id="binary_sensor.0x00158d00025370d1_contact"
     d="m 866.82544,728.39634 h -3 v -96.4438 h 3 z"
     inkscape:connector-curvature="0"
     style="overflow:hidden;stroke-width:2.83495808"
     inkscape:label="#path2794"
     inkscape:transform-center-y="-5.0018494" />
  <path
     id="binary_sensor.0x00158d0002531749_contact"
     d="m 174.04308,704.31819 h 8 v 55.25155 h -8 z"
     inkscape:connector-curvature="0"
     style="overflow:hidden;stroke-width:3.50401568"
     inkscape:label="#path2794" />
  <flowRoot
     xml:space="preserve"
     id="flowRoot2958"
     style="fill:black;fill-opacity:1;stroke:none;font-family:Calibri;font-style:normal;font-weight:normal;font-size:40px;line-height:1.25;letter-spacing:0px;word-spacing:0px;-inkscape-font-specification:Calibri;font-stretch:normal;font-variant:normal;text-anchor:middle;text-align:center;"><flowRegion
       id="flowRegion2960"
       style="text-anchor:middle;text-align:center;"><rect
         id="rect2962"
         width="126.63857"
         height="53.694752"
         x="25.834267"
         y="406.25653"
         style="text-anchor:middle;text-align:center;" /></flowRegion><flowPara
       id="flowPara2964" /></flowRoot>  <text
     xml:space="preserve"
     x="71.635689"
     y="426.64706"
     id="sensor.last_motion"
     inkscape:label="sensor.last_motion"
     transform="scale(1.1333534,0.88233731)"
     style="font-style:normal;font-variant:normal;font-weight:normal;font-stretch:normal;font-size:26.66666603px;font-family:Calibri;-inkscape-font-specification:'Calibri, Normal';font-variant-ligatures:normal;font-variant-caps:normal;font-variant-numeric:normal;font-feature-settings:normal;text-align:center;writing-mode:lr-tb;text-anchor:middle;display:inline;stroke:#000000;stroke-width:0.5;stroke-miterlimit:4;stroke-dasharray:none;stroke-opacity:1"><tspan
       y="426.64706"
       x="71.635689"
       sodipodi:role="line"
       id="tspan4744">----------</tspan></text>
  <text
     xml:space="preserve"
     style="font-style:normal;font-weight:normal;font-size:40px;line-height:1.25;font-family:sans-serif;letter-spacing:0px;word-spacing:0px;fill:#000000;fill-opacity:1;stroke:none"
     x="26.471584"
     y="348.09454"
     id="text2956"><tspan
       sodipodi:role="line"
       id="tspan2954"
       x="26.471584"
       y="348.09454"
       style="font-style:normal;font-variant:normal;font-weight:normal;font-stretch:normal;font-size:24px;font-family:Calibri;-inkscape-font-specification:Calibri">Last motion</tspan></text>
  <text
     xml:space="preserve"
     style="font-style:normal;font-variant:normal;font-weight:normal;font-stretch:normal;font-size:18.66666603px;line-height:1.25;font-family:Calibri;-inkscape-font-specification:'Calibri, Normal';font-variant-ligatures:normal;font-variant-caps:normal;font-variant-numeric:normal;font-feature-settings:normal;text-align:start;letter-spacing:0px;word-spacing:0px;writing-mode:lr-tb;text-anchor:start;fill:#000000;fill-opacity:1;stroke:none"
     x="21.76256"
     y="404.93994"
     id="sensor.last_motion_time"
     inkscape:label="sensor.last_motion_time"><tspan
       sodipodi:role="line"
       id="tspan4756"
       x="21.76256"
       y="404.93994">----------------------</tspan></text>
  <path
     id="binary_sensor.0x00158d0002b482e9_occupancy"
     d="m 202.4107,413.13942 a 3,2.7906977 0 0 0 3,-2.7907 3,2.7906977 0 0 0 -3,-2.7907 3,2.7906977 0 0 0 -3,2.7907 3,2.7906977 0 0 0 3,2.7907 m -5.4,19.39534 1.5,-6.13953 3.15,2.7907 v 8.37209 h 3 V 427.0929 l -3.15,-2.79069 0.9,-4.18605 c 2.085,2.2186 5.085,3.48837 8.25,3.48837 v -2.7907 c -2.64,0.0419 -5.1,-1.24186 -6.45,-3.34883 l -1.5,-2.23256 c -0.54,-0.83721 -1.5,-1.39535 -2.55,-1.39535 -0.45,0 -0.75,0.13953 -1.2,0.13953 l -7.8,3.06977 v 6.55814 h 3 v -4.74418 l 2.7,-0.97675 -2.4,11.30233 -7.35,-1.39535 -0.6,2.7907 10.5,1.95348 m -13.35,-14.51162 a 1.5,1.3953488 0 0 1 -1.5,-1.39535 1.5,1.3953488 0 0 1 1.5,-1.39535 h 4.5 v 2.7907 h -4.5 m 1.5,-5.5814 a 1.5,1.3953488 0 0 1 -1.5,-1.39535 1.5,1.3953488 0 0 1 1.5,-1.39535 h 7.5 v 2.7907 h -7.5 m -3,11.16279 a 1.5,1.3953488 0 0 1 -1.5,-1.39535 1.5,1.3953488 0 0 1 1.5,-1.39535 h 6 v 2.7907 z"
     inkscape:connector-curvature="0"
     style="overflow:hidden;stroke-width:1.44672847"
     inkscape:label="#path1103-13" />
  <path
     id="camera.uvc_g3_flex_entrance"
     d="m 372.71197,597.8804 c -0.61099,-0.0482 -1.25414,0.0965 -1.84905,0.41805 l -13.90803,8.03932 c -1.54355,0.90041 -2.05807,2.89416 -1.17374,4.40555 l 2.4118,4.16437 c 0.88432,1.55963 2.84592,2.07415 4.38947,1.18982 l 2.89416,-1.67218 c 0.43412,0.73962 1.07727,1.33453 1.86512,1.67218 v 2.84592 c 0,1.75258 1.431,3.15142 3.21573,3.15142 h 8.34482 v -3.15142 h -8.34482 v -2.84592 c 1.46316,-0.64314 2.4118,-2.09022 2.4118,-3.64985 0,-0.73962 -0.19295,-1.431 -0.54668,-2.04199 l 4.0679,-2.34748 c 1.55963,-0.90041 2.09023,-2.84592 1.18982,-4.40555 l -2.4118,-4.16437 c -0.54667,-0.96472 -1.52747,-1.5114 -2.5565,-1.60787 m -19.18183,13.23273 -6.78519,1.12551 1.2059,2.09022 3.21573,5.56321 1.2059,2.09023 4.37339,-5.30596 z"
     inkscape:connector-curvature="0"
     style="overflow:hidden;stroke-width:1.6078651"
     inkscape:label="#path3290" />
  <path
     id="camera.uvc_g3_flex_dixy"
     d="m 828.90813,743.47071 c -0.0482,-0.61099 0.0965,-1.25414 0.41805,-1.84905 l 8.03932,-13.90803 c 0.90041,-1.54355 2.89416,-2.05807 4.40555,-1.17374 l 4.16437,2.4118 c 1.55963,0.88432 2.07415,2.84592 1.18982,4.38947 l -1.67218,2.89416 c 0.73962,0.43412 1.33453,1.07727 1.67218,1.86512 h 2.84592 c 1.75258,0 3.15142,1.431 3.15142,3.21573 v 8.34482 h -3.15142 v -8.34482 h -2.84592 c -0.64314,1.46316 -2.09022,2.4118 -3.64985,2.4118 -0.73962,0 -1.431,-0.19295 -2.04199,-0.54668 l -2.34748,4.0679 c -0.90041,1.55963 -2.84592,2.09023 -4.40555,1.18982 l -4.16437,-2.4118 c -0.96472,-0.54667 -1.5114,-1.52747 -1.60787,-2.5565 m 13.23273,-19.18183 1.12551,-6.78519 2.09022,1.2059 5.56321,3.21573 2.09023,1.2059 -5.30596,4.37339 z"
     inkscape:connector-curvature="0"
     style="overflow:hidden;stroke-width:1.6078651"
     inkscape:label="#path3290" />
  <path
     id="camera.uvc_g3_flex_window"
     d="m 46.49104,73.090189 c -0.61099,-0.0482 -1.25414,0.0965 -1.84905,0.41805 l -13.90803,8.03932 c -1.54355,0.90041 -2.05807,2.89416 -1.17374,4.40555 l 2.4118,4.16437 c 0.88432,1.55963 2.84592,2.07415 4.38947,1.18982 l 2.89416,-1.67218 c 0.43412,0.73962 1.07727,1.33453 1.86512,1.67218 v 2.84592 c 0,1.75258 1.431,3.15142 3.21573,3.15142 h 8.34482 v -3.15142 H 44.3365 v -2.84592 c 1.46316,-0.64314 2.4118,-2.09022 2.4118,-3.64985 0,-0.73962 -0.19295,-1.431 -0.54668,-2.04199 l 4.0679,-2.34748 c 1.55963,-0.90041 2.09023,-2.84592 1.18982,-4.40555 l -2.4118,-4.16437 c -0.54667,-0.96472 -1.52747,-1.5114 -2.5565,-1.60787 m -19.18183,13.23273 -6.785194,1.12551 1.2059,2.09022 3.21573,5.56321 1.205904,2.09023 4.37339,-5.30596 z"
     inkscape:connector-curvature="0"
     style="overflow:hidden;stroke-width:1.6078651"
     inkscape:label="#path3290" />
  <path
     id="light.philips_e27_mb"
     d="m 44.465759,200.00186 -4.77274,6.25 3.25804,1.875 -9.08822,11.875 c -0.11432,0 -0.25722,0 -0.40012,0 a 5.7158652,5 0 0 0 -5.71586,5 c 0,2.35 1.88623,4.375 4.51554,4.875 l 11.54604,15.125 h -10.34572 v 5 h 28.57933 v -5 h -11.43173 l -12.77496,-16.8 c 0.85738,-0.9 1.34323,-2.025 1.34323,-3.2 0,-0.75 -0.20006,-1.5 -0.57159,-2.175 l 9.14539,-11.9 c -0.62875,4.2 2.14345,8.8 7.00193,11.575 l 12.68923,-16.575 c -4.82991,-2.825 -10.77441,-3.325 -14.97557,-1.25 l -8.00222,-4.675 m 21.37734,12.5 -4.74417,6.25 c 1.9434,1.125 4.62986,0.675 5.94451,-1.05 1.31464,-1.725 0.71448,-4.05 -1.20034,-5.2 z"
     inkscape:connector-curvature="0"
     style="overflow:hidden;stroke-width:2.67298174"
     inkscape:label="#path2983-3" />
  <path
     id="light.led_color_k"
     d="m 822.5331,589.03553 -4.77274,6.25 3.25804,1.875 -9.08822,11.875 c -0.11432,0 -0.25722,0 -0.40012,0 a 5.7158652,5 0 0 0 -5.71586,5 c 0,2.35 1.88623,4.375 4.51554,4.875 l 11.54604,15.125 h -10.34572 v 5 h 28.57933 v -5 h -11.43173 l -12.77496,-16.8 c 0.85738,-0.9 1.34323,-2.025 1.34323,-3.2 0,-0.75 -0.20006,-1.5 -0.57159,-2.175 l 9.14539,-11.9 c -0.62875,4.2 2.14345,8.8 7.00193,11.575 l 12.68923,-16.575 c -4.82991,-2.825 -10.77441,-3.325 -14.97557,-1.25 l -8.00222,-4.675 m 21.37734,12.5 -4.74417,6.25 c 1.9434,1.125 4.62986,0.675 5.94451,-1.05 1.31464,-1.725 0.71448,-4.05 -1.20034,-5.2 z"
     inkscape:connector-curvature="0"
     style="overflow:hidden;stroke-width:2.67298174"
     inkscape:label="#path2983-3" />
  <a
     id="a5057" />
  <path
     id="light.round_led_s"
     d="m 658.29363,681.39378 -6.57375,-7.48977 0.91601,-9.91451 -9.72592,-2.20922 -5.09197,-8.56743 -9.16014,3.93348 -9.16015,-3.93348 -5.09197,8.56743 -9.72592,2.18227 0.91601,9.91452 -6.57375,7.51671 6.57375,7.48977 -0.91601,9.94145 9.72592,2.20921 5.09197,8.56744 9.16015,-3.96042 9.16014,3.93348 5.09197,-8.56744 9.72592,-2.20921 -0.91601,-9.91451 z"
     inkscape:connector-curvature="0"
     style="stroke-width:2.69416142" />
  <path
     inkscape:label="#path1103"
     style="overflow:hidden;stroke-width:1.44672847"
     inkscape:connector-curvature="0"
     d="m 783.93499,781.91092 a 3,2.7906977 0 0 0 3,-2.7907 3,2.7906977 0 0 0 -3,-2.7907 3,2.7906977 0 0 0 -3,2.7907 3,2.7906977 0 0 0 3,2.7907 m -5.4,19.39534 1.5,-6.13953 3.15,2.7907 v 8.37209 h 3 V 795.8644 l -3.15,-2.79069 0.9,-4.18605 c 2.085,2.2186 5.085,3.48837 8.25,3.48837 v -2.7907 c -2.64,0.0419 -5.1,-1.24186 -6.45,-3.34883 l -1.5,-2.23256 c -0.54,-0.83721 -1.5,-1.39535 -2.55,-1.39535 -0.45,0 -0.75,0.13953 -1.2,0.13953 l -7.8,3.06977 v 6.55814 h 3 v -4.74418 l 2.7,-0.97675 -2.4,11.30233 -7.35,-1.39535 -0.6,2.7907 10.5,1.95348 m -13.35,-14.51162 a 1.5,1.3953488 0 0 1 -1.5,-1.39535 1.5,1.3953488 0 0 1 1.5,-1.39535 h 4.5 v 2.7907 h -4.5 m 1.5,-5.5814 a 1.5,1.3953488 0 0 1 -1.5,-1.39535 1.5,1.3953488 0 0 1 1.5,-1.39535 h 7.5 v 2.7907 h -7.5 m -3,11.16279 a 1.5,1.3953488 0 0 1 -1.5,-1.39535 1.5,1.3953488 0 0 1 1.5,-1.39535 h 6 v 2.7907 z"
     id="binary_sensor.0x00158d0003140824_occupancy" />
  <path
     id="light.round_led_k"
     d="m 787.97152,145.45938 -6.57375,-7.48977 0.91601,-9.91451 -9.72592,-2.20922 -5.09197,-8.56743 -9.16014,3.93348 -9.16015,-3.93348 -5.09197,8.56743 -9.72592,2.18227 0.91601,9.91452 -6.57375,7.51671 6.57375,7.48977 -0.91601,9.94145 9.72592,2.20921 5.09197,8.56744 9.16015,-3.96042 9.16014,3.93348 5.09197,-8.56744 9.72592,-2.20921 -0.91601,-9.91451 z"
     inkscape:connector-curvature="0"
     style="stroke-width:2.69416142" />
</svg>
